<svg xmlns="http://www.w3.org/2000/svg" viewBox="0 0 32 32" width="32" height="32">
  <!-- Background circle -->
  <circle cx="16" cy="16" r="16" fill="#22c55e"/>
  
  <!-- Crescent moon -->
  <path d="M12 8 C12 8, 8 12, 8 16 C8 20, 12 24, 12 24 C10 22, 9 19, 9 16 C9 13, 10 10, 12 8 Z" fill="white"/>
  
  <!-- Star -->
  <polygon points="20,9 21,12 24,12 21.5,14 22.5,17 20,15 17.5,17 18.5,14 16,12 19,12" fill="white"/>
  
  <!-- Small decorative dots -->
  <circle cx="13" cy="11" r="0.8" fill="white" opacity="0.7"/>
  <circle cx="14.5" cy="20" r="0.6" fill="white" opacity="0.5"/>
  <circle cx="23" cy="19" r="0.5" fill="white" opacity="0.6"/>
</svg> 